<svg xmlns="http://www.w3.org/2000/svg" viewBox="0 0 400 300" preserveAspectRatio="xMidYMid slice">
  <defs>
    <linearGradient id="sky2" x1="0" y1="0" x2="0" y2="1">
      <stop offset="0" stop-color="#e6f3ea"/><stop offset="1" stop-color="#f7f3e6"/>
    </linearGradient>
  </defs>
  <rect width="400" height="300" fill="url(#sky2)"/>
  <circle cx="74" cy="64" r="26" fill="#e3b54a" opacity=".85"/>
  <!-- fields -->
  <path d="M0 176 Q100 150 200 166 T400 160 V300 H0Z" fill="#9fd3ae"/>
  <path d="M0 196 Q120 176 240 190 T400 186 V300 H0Z" fill="#6fbf86"/>
  <g stroke="#4fa56a" stroke-width="2" opacity=".7">
    <path d="M10 214l30-12M40 222l34-14M300 204l40-10M330 212l44-10"/>
  </g>
  <!-- factory -->
  <g>
    <rect x="150" y="70" width="14" height="70" fill="#5b5f7a"/>
    <rect x="150" y="78" width="14" height="5" fill="#c85a4a"/>
    <circle cx="170" cy="58" r="9" fill="#fff" opacity=".8"/>
    <circle cx="184" cy="46" r="12" fill="#fff" opacity=".6"/>
    <path d="M120 180V130l40-22v22l40-22v22l40-22v22l40-22V180Z" fill="#2b2d8c"/>
    <g fill="#e3b54a">
      <rect x="134" y="146" width="16" height="10"/><rect x="170" y="146" width="16" height="10"/>
      <rect x="206" y="146" width="16" height="10"/><rect x="242" y="146" width="16" height="10"/>
    </g>
    <rect x="186" y="162" width="28" height="18" fill="#1b1d52"/>
  </g>
  <!-- warehouse / silo -->
  <g>
    <rect x="296" y="120" width="26" height="62" rx="4" fill="#d8dcef"/>
    <path d="M296 124a13 10 0 0 1 26 0" fill="#b8bedd"/>
    <rect x="326" y="132" width="26" height="50" rx="4" fill="#d8dcef"/>
    <path d="M326 136a13 10 0 0 1 26 0" fill="#b8bedd"/>
  </g>
  <!-- road -->
  <path d="M-10 262 Q200 218 410 248 V274 Q200 244 -10 290Z" fill="#5b5f7a"/>
  <path d="M20 270 Q200 236 390 258" stroke="#f3f4fb" stroke-width="2" stroke-dasharray="12 10" fill="none"/>
  <!-- truck -->
  <g transform="translate(78 222) rotate(-6)">
    <rect x="0" y="0" width="70" height="30" rx="2" fill="#2fa35a"/>
    <path d="M70 8h18l12 12v10H70Z" fill="#f3f4fb"/>
    <rect x="76" y="11" width="12" height="8" fill="#4b8bd0"/>
    <circle cx="16" cy="32" r="7" fill="#1b1d52"/><circle cx="84" cy="32" r="7" fill="#1b1d52"/>
    <text x="35" y="20" font-family="sans-serif" font-size="10" font-weight="700" fill="#fff" text-anchor="middle">IKSEZ</text>
  </g>
  <!-- trees -->
  <g fill="#2fa35a">
    <circle cx="40" cy="170" r="12"/><circle cx="58" cy="176" r="9"/>
    <circle cx="378" cy="168" r="11"/>
  </g>
  <!-- India-wide route pins -->
  <g fill="#c85a4a">
    <path d="M250 214c0-7 12-7 12 0 0 5-6 12-6 12s-6-7-6-12Z"/>
    <path d="M356 210c0-7 12-7 12 0 0 5-6 12-6 12s-6-7-6-12Z"/>
  </g>
</svg>
